<svg xmlns="http://www.w3.org/2000/svg" data-name="Layer 1" viewBox="0 0 100 125" x="0px" y="0px"><title>Artboard 236</title><path d="M4,40.78l21.42,22-7.14,30.4,0,.08a3.37,3.37,0,0,0,.52,2.7,3.41,3.41,0,0,0,4.75.88L50.68,78.13,78.3,96l.1.06a2.36,2.36,0,0,0,1.93.3,2.41,2.41,0,0,0,1.69-3L74.29,65h0c-.46-1.59-1.52-3-2.42-3.3.89.24,2.54-.48,3.72-1.62l.34-.32L96.36,39.92a2.35,2.35,0,0,0-1.37-4H94.9L65.49,32.53,53.73,4.62a3.33,3.33,0,0,0-6.12,0l0,.06L35.72,31.77,6.27,34.51A3.69,3.69,0,0,0,4,40.75Zm34.57-2a3.56,3.56,0,0,0,2.93-2.16l9.29-22.23,10,22.08,0,0a3,3,0,0,0,2.43,1.7l26.37,2.07L72.3,59h0c-1.15,1.26-1.34,2.44-.45,2.68h0c-.91-.25-1.35.84-1,2.52l.1.45c1.62,7.83,3.3,15.78,5,23.75L52.32,72a3,3,0,0,0-3.3,0L49,72,27.06,86.29,33,62.48a3.56,3.56,0,0,0-.9-3.35l0,0-17.4-18,23.82-2.37Z"/><text x="0" y="115" fill="#000000" font-size="5px" font-weight="bold" font-family="'Helvetica Neue', Helvetica, Arial-Unicode, Arial, Sans-serif">Created by Gregor Cresnar</text><text x="0" y="120" fill="#000000" font-size="5px" font-weight="bold" font-family="'Helvetica Neue', Helvetica, Arial-Unicode, Arial, Sans-serif">from the Noun Project</text></svg>